<svg width="21" height="18" viewBox="0 0 21 18" fill="none" xmlns="http://www.w3.org/2000/svg">
<path d="M5.24886 0.25C8.01538 0.25 10.2561 2.44375 10.2561 5.15C10.2561 2.44375 12.4969 0.25 15.2634 0.25C18.0299 0.25 20.2707 2.44375 20.2707 5.15C20.2707 9.22875 16.2223 10.6675 10.7468 17.16C10.6866 17.2313 10.6114 17.2886 10.5267 17.3279C10.4419 17.3672 10.3496 17.3876 10.2561 17.3876C10.1627 17.3876 10.0704 17.3672 9.9856 17.3279C9.90084 17.2886 9.8257 17.2313 9.76542 17.16C4.28996 10.6675 0.241577 9.22875 0.241577 5.15C0.241577 2.44375 2.48233 0.25 5.24886 0.25Z" fill="#F02323"/>
</svg>
