<svg width="17" height="16" viewBox="0 0 17 16" fill="none" xmlns="http://www.w3.org/2000/svg">
<path d="M12.1212 3.99998C12.8911 3.99998 13.5151 3.40303 13.5151 2.66665C13.5151 1.93027 12.8911 1.33331 12.1212 1.33331C11.3514 1.33331 10.7273 1.93027 10.7273 2.66665C10.7273 3.40303 11.3514 3.99998 12.1212 3.99998Z" fill="#1D2E5B"/>
<path d="M11.2688 7.31265C11.4288 7.5407 11.6583 7.71613 11.9262 7.81512C12.194 7.91411 12.4872 7.93187 12.7659 7.86598L15.0771 7.31331L14.7404 6.01998L12.4293 6.57265L11.4682 5.19465C11.2628 4.90036 10.9441 4.69569 10.5816 4.62531L7.90107 4.11198C7.60119 4.05441 7.28985 4.09288 7.01511 4.22145C6.74037 4.35002 6.51752 4.56152 6.38098 4.82331L5.2254 7.03398L6.47228 7.63065L7.62786 5.41931L8.9988 5.68198L5.45401 11.3333H2.36365V12.6666H5.45401C5.9405 12.6666 6.39841 12.4186 6.64931 12.0193L7.9861 9.88865L11.5887 10.578L12.8544 14.2106L14.1759 13.7886L12.9109 10.1566C12.8328 9.93366 12.6947 9.73429 12.5104 9.57863C12.3261 9.42297 12.1022 9.31651 11.8613 9.26998L9.74316 8.86531L10.9782 6.89598L11.2688 7.31265V7.31265Z" fill="#1D2E5B"/>
</svg>
