<svg width="18" height="18" viewBox="0 0 18 18" fill="none" xmlns="http://www.w3.org/2000/svg">
<g clip-path="url(#clip0_20358_2392)">
<path d="M12.9601 2.03344C13.8189 2.03531 14.6419 2.37173 15.2491 2.96909C15.8563 3.56645 16.1982 4.37611 16.2001 5.2209V13.0125C16.1982 13.8573 15.8563 14.6669 15.2491 15.2643C14.6419 15.8617 13.8189 16.1981 12.9601 16.1999H5.04014C4.18267 16.1962 3.36151 15.859 2.75586 15.2618C2.15021 14.6646 1.80923 13.8561 1.80734 13.0125V5.2209C1.80923 4.37733 2.15021 3.56874 2.75586 2.97158C3.36151 2.37442 4.18267 2.03717 5.04014 2.03344H12.9601ZM12.9601 0.970947H5.04014C3.8944 0.970947 2.79559 1.41871 1.98544 2.21573C1.17528 3.01275 0.720139 4.09374 0.720139 5.2209L0.720139 13.0125C0.720139 14.1396 1.17528 15.2206 1.98544 16.0177C2.79559 16.8147 3.8944 17.2624 5.04014 17.2624H12.9601C14.1059 17.2624 15.2047 16.8147 16.0148 16.0177C16.825 15.2206 17.2801 14.1396 17.2801 13.0125V5.2209C17.2801 4.09374 16.825 3.01275 16.0148 2.21573C15.2047 1.41871 14.1059 0.970947 12.9601 0.970947V0.970947Z" fill="#192144"/>
<path d="M9.007 5.9851C9.63784 5.9851 10.2545 6.16914 10.779 6.51393C11.3036 6.85873 11.7124 7.3488 11.9538 7.92217C12.1952 8.49554 12.2584 9.12647 12.1353 9.73516C12.0122 10.3438 11.7085 10.903 11.2624 11.3418C10.8163 11.7806 10.248 12.0795 9.62926 12.2006C9.01054 12.3217 8.36921 12.2595 7.78639 12.022C7.20357 11.7845 6.70542 11.3823 6.35494 10.8663C6.00446 10.3503 5.8174 9.7436 5.8174 9.12299C5.81645 8.71065 5.8983 8.30219 6.05826 7.92107C6.21821 7.53994 6.45312 7.19365 6.74949 6.90208C7.04586 6.61052 7.39786 6.37942 7.78527 6.22206C8.17268 6.0647 8.58787 5.98417 9.007 5.9851ZM9.007 4.92261C8.16225 4.92121 7.33606 5.16637 6.63298 5.62706C5.9299 6.08775 5.38153 6.74327 5.05727 7.51066C4.73301 8.27805 4.64743 9.12283 4.81136 9.93809C4.97529 10.7533 5.38136 11.5024 5.97819 12.0906C6.57501 12.6787 7.33577 13.0795 8.16419 13.2421C8.99261 13.4048 9.85145 13.322 10.632 13.0043C11.4126 12.6866 12.0799 12.1482 12.5493 11.4573C13.0188 10.7664 13.2694 9.95404 13.2694 9.12299C13.2703 8.57172 13.1608 8.02568 12.947 7.51611C12.7332 7.00654 12.4194 6.54344 12.0235 6.1533C11.6276 5.76317 11.1574 5.45366 10.6398 5.24249C10.1222 5.03131 9.56735 4.92261 9.007 4.92261Z" fill="#192144"/>
<path d="M13.4282 5.73108C13.9611 5.73108 14.393 5.30613 14.393 4.78192C14.393 4.25772 13.9611 3.83276 13.4282 3.83276C12.8954 3.83276 12.4634 4.25772 12.4634 4.78192C12.4634 5.30613 12.8954 5.73108 13.4282 5.73108Z" fill="#192144"/>
</g>
<defs>
<clipPath id="clip0_20358_2392">
<rect width="18" height="17.7081" fill="white" transform="translate(0 0.261963)"/>
</clipPath>
</defs>
</svg>
