<svg width="22" height="22" viewBox="0 0 22 22" fill="none" xmlns="http://www.w3.org/2000/svg">
<path d="M15.8402 2.20086C16.8897 2.20318 17.8956 2.62114 18.6377 3.36328C19.3799 4.10542 19.7978 5.11132 19.8002 6.16086V15.8409C19.7978 16.8904 19.3799 17.8963 18.6377 18.6384C17.8956 19.3806 16.8897 19.7985 15.8402 19.8009H6.16016C5.11214 19.7962 4.1085 19.3772 3.36826 18.6353C2.62802 17.8934 2.21127 16.8889 2.20896 15.8409V6.16086C2.21127 5.11284 2.62802 4.10827 3.36826 3.36638C4.1085 2.62449 5.11214 2.2055 6.16016 2.20086H15.8402ZM15.8402 0.880859H6.16016C4.75981 0.880859 3.41683 1.43714 2.42663 2.42734C1.43644 3.41753 0.880157 4.76052 0.880157 6.16086L0.880157 15.8409C0.880157 17.2412 1.43644 18.5842 2.42663 19.5744C3.41683 20.5646 4.75981 21.1209 6.16016 21.1209H15.8402C17.2405 21.1209 18.5835 20.5646 19.5737 19.5744C20.5639 18.5842 21.1202 17.2412 21.1202 15.8409V6.16086C21.1202 4.76052 20.5639 3.41753 19.5737 2.42734C18.5835 1.43714 17.2405 0.880859 15.8402 0.880859V0.880859Z" fill="#192144"/>
<path d="M11.0085 7.11005C11.7796 7.11005 12.5333 7.33868 13.1744 7.76705C13.8155 8.19541 14.3151 8.80426 14.6102 9.5166C14.9053 10.2289 14.9825 11.0128 14.832 11.769C14.6816 12.5252 14.3103 13.2198 13.7651 13.765C13.2199 14.3102 12.5253 14.6815 11.7691 14.8319C11.0129 14.9824 10.229 14.9052 9.51669 14.6101C8.80435 14.315 8.19551 13.8154 7.76714 13.1743C7.33878 12.5332 7.11014 11.7795 7.11014 11.0084C7.10898 10.4962 7.20903 9.98872 7.40453 9.51522C7.60003 9.04172 7.88714 8.61151 8.24937 8.24927C8.6116 7.88704 9.04182 7.59993 9.51532 7.40443C9.98882 7.20893 10.4963 7.10889 11.0085 7.11005ZM11.0085 5.79005C9.97607 5.78831 8.96628 6.09288 8.10696 6.66522C7.24765 7.23757 6.57742 8.05196 6.1811 9.00535C5.78478 9.95873 5.68019 11.0083 5.88054 12.0211C6.0809 13.034 6.57721 13.9646 7.30667 14.6953C8.03612 15.426 8.96594 15.9239 9.97845 16.1259C10.991 16.328 12.0407 16.2252 12.9947 15.8305C13.9488 15.4358 14.7643 14.7669 15.3381 13.9086C15.9119 13.0502 16.2181 12.0409 16.2182 11.0084C16.2193 10.3236 16.0854 9.64519 15.8241 9.01212C15.5628 8.37904 15.1793 7.8037 14.6954 7.31901C14.2115 6.83432 13.6368 6.4498 13.0042 6.18744C12.3716 5.92509 11.6934 5.79005 11.0085 5.79005Z" fill="#192144"/>
<path d="M16.4123 6.79492C17.0635 6.79492 17.5915 6.26698 17.5915 5.61572C17.5915 4.96447 17.0635 4.43652 16.4123 4.43652C15.761 4.43652 15.2331 4.96447 15.2331 5.61572C15.2331 6.26698 15.761 6.79492 16.4123 6.79492Z" fill="#192144"/>
</svg>
