<svg width="168" height="42" viewBox="0 0 168 42" fill="none" xmlns="http://www.w3.org/2000/svg">
<path d="M78.0162 10.6205L44.7361 41.9998L32.5887 1.77148L78.0162 10.6205Z" fill="#FF8D30"/>
<ellipse cx="78.6236" cy="28.4735" rx="3.613" ry="3.57161" fill="#88BFEB"/>
<ellipse cx="92.8495" cy="18.0862" rx="12.5943" ry="12.45" fill="#EB9898"/>
<rect width="46.6582" height="23.5536" transform="matrix(0.939135 -0.343549 0.350582 0.936532 85.439 19.5747)" fill="#72A73E"/>
<ellipse cx="91.3341" cy="34.1406" rx="2.11696" ry="2.09272" fill="#FFBD30"/>
<ellipse rx="18.9194" ry="7.58723" transform="matrix(0.970246 0.242122 -0.247424 0.968907 132.047 28.0498)" fill="#8EC7F5"/>
<ellipse cx="146.385" cy="10.2557" rx="2.15293" ry="2.12827" fill="#FFBD30"/>
<ellipse cx="153.101" cy="7.72739" rx="2.15293" ry="2.12827" fill="#FFBD30"/>
<path d="M3.34155 35.3491H8.33248V37.6689C8.33248 38.2212 7.88477 38.6689 7.33248 38.6689H4.34155C3.78927 38.6689 3.34155 38.2212 3.34155 37.6689V35.3491Z" fill="#1D2959"/>
<path d="M34.2033 35.3491H39.1942V37.6689C39.1942 38.2212 38.7465 38.6689 38.1942 38.6689H35.2033C34.651 38.6689 34.2033 38.2212 34.2033 37.6689V35.3491Z" fill="#1D2959"/>
<path fill-rule="evenodd" clip-rule="evenodd" d="M23.9206 2.93804C22.947 2.55374 21.8836 2.24535 21.1121 2.26056C20.3857 2.27488 19.3909 2.58611 18.4834 2.96056C17.9753 3.1702 17.4736 3.40137 16.9901 3.6628L16.9869 3.66455C16.4147 3.97905 15.6944 3.77264 15.3783 3.20325C15.0621 2.63378 15.2696 1.91701 15.8418 1.6023C16.0085 1.51188 16.1773 1.42555 16.3473 1.34147C16.6531 1.19024 17.0821 0.9881 17.5767 0.783995C18.5254 0.392564 19.8678 0.024811 21.0652 0.00120765C22.3394 -0.0239095 23.7772 0.346681 24.7934 0.747828C25.4274 0.998099 26.0525 1.27466 26.6533 1.59671L26.654 1.59711C27.2291 1.90657 27.4432 2.62141 27.1323 3.19375C26.8231 3.76289 26.0944 3.97184 25.5245 3.66786C25.3788 3.59088 25.231 3.51777 25.0825 3.4464C24.7922 3.30694 24.3854 3.12153 23.9206 2.93804Z" fill="#8A4A38"/>
<path fill-rule="evenodd" clip-rule="evenodd" d="M15.9928 1.44971C15.4619 1.44971 15.0315 1.88011 15.0315 2.41104V3.02569C15.0315 3.46813 15.3902 3.8268 15.8326 3.8268H15.8543V6.8939H16.6931V3.80486H16.4747C17.0218 3.69835 17.4348 3.21653 17.4348 2.63825C17.4348 1.98184 16.9027 1.44971 16.2463 1.44971H15.9928Z" fill="#F6EF3E"/>
<path fill-rule="evenodd" clip-rule="evenodd" d="M26.5126 1.44971C27.0435 1.44971 27.4739 1.88011 27.4739 2.41104V3.02569C27.4739 3.46813 27.1153 3.8268 26.6728 3.8268H26.6512V6.8939H25.8123V3.80486H26.0307C25.4836 3.69835 25.0706 3.21653 25.0706 2.63825C25.0706 1.98184 25.6027 1.44971 26.2592 1.44971H26.5126Z" fill="#F6EF3E"/>
<path d="M0 15.52C0 10.5495 4.02944 6.52002 9 6.52002H33.5399C38.5105 6.52002 42.5399 10.5495 42.5399 15.52V35.3488H0V15.52Z" fill="#8A4A38"/>
<ellipse cx="6.68408" cy="27.9277" rx="4.16748" ry="4.12104" fill="#EF9A9A"/>
<ellipse rx="4.01571" ry="7.727" transform="matrix(0.700848 -0.71331 0.721334 0.692588 32.7661 28.0697)" fill="#93C6EB"/>
<rect width="13.6922" height="7.62634" transform="matrix(0.688909 -0.724848 0.732721 0.680529 16.3958 17.9053)" fill="#C2DEA3"/>
<rect width="6.95591" height="5.21665" rx="1" transform="matrix(0.733892 0.679267 -0.687658 0.726035 8.78491 11.1396)" fill="#C49A6C"/>
<rect x="8.33261" y="19.3623" width="5.86679" height="16.7996" fill="#F57B20"/>
<path d="M8.33261 5.43408H14.1994V19.9818C14.1994 21.6019 12.8861 22.9152 11.266 22.9152C9.64594 22.9152 8.33261 21.6019 8.33261 19.9818V5.43408Z" fill="#F6A725"/>
<rect x="7.51941" y="18.042" width="7.49871" height="1.64937" fill="#F6EF3E"/>
<rect x="28.3462" y="19.3623" width="5.86679" height="16.7996" fill="#F57B20"/>
<path d="M28.3462 5.43408H34.213V19.9818C34.213 21.6019 32.8996 22.9152 31.2796 22.9152C29.6595 22.9152 28.3462 21.6019 28.3462 19.9818V5.43408Z" fill="#F6A725"/>
<rect x="27.533" y="18.042" width="7.49871" height="1.64937" fill="#F6EF3E"/>
<g filter="url(#filter0_d_20358_2649)">
<path d="M164.789 19.0572C165.596 18.5497 166 17.7673 166 16.7099C166 15.3284 165.419 14.2429 164.257 13.4534C163.127 12.6498 161.795 12.248 160.261 12.248C158.76 12.248 157.388 12.6851 156.145 13.5591C154.918 14.4191 154.304 15.568 154.304 17.006C154.304 17.5417 154.474 17.9858 154.813 18.3382C155.152 18.6766 155.636 18.8457 156.266 18.8457C156.879 18.8457 157.347 18.6766 157.67 18.3382C158.009 17.9858 158.179 17.5417 158.179 17.006C158.146 16.5972 158.284 16.1813 158.59 15.7584C158.897 15.3213 159.454 15.1028 160.261 15.1028C160.939 15.1169 161.423 15.2861 161.714 15.6103C162.021 15.9346 162.158 16.2588 162.126 16.5831C162.126 16.8086 162.045 17.0342 161.884 17.2597C161.722 17.4853 161.553 17.6615 161.375 17.7884C161.214 17.9153 160.947 18.0986 160.576 18.3382C160.205 18.5779 159.946 18.747 159.801 18.8457C158.962 19.4519 158.542 20.2555 158.542 21.2564C158.542 21.7498 158.719 22.1657 159.075 22.5041C159.446 22.8283 159.938 22.9904 160.552 22.9904C161.165 22.9904 161.649 22.8283 162.005 22.5041C162.376 22.1657 162.562 21.7498 162.562 21.2564C162.562 21.045 162.602 20.8476 162.683 20.6643C162.763 20.4811 162.892 20.3119 163.07 20.1568C163.264 20.0017 163.425 19.8749 163.554 19.7762C163.7 19.6775 163.91 19.5506 164.184 19.3955C164.475 19.2405 164.676 19.1277 164.789 19.0572Z" fill="#192144"/>
<path d="M144.098 23.5095L148.387 18.2593C148.827 17.6255 149.424 17.2726 150.178 17.2006C150.932 17.1141 151.591 17.2942 152.157 17.7407C152.723 18.1872 152.99 18.785 152.958 19.534V27.0529C152.958 27.5282 152.77 27.9315 152.393 28.2628C152.031 28.5797 151.591 28.7381 151.073 28.7381C150.555 28.7381 150.107 28.5797 149.73 28.2628C149.369 27.9315 149.188 27.5282 149.188 27.0529V22.386L144.899 27.6362C144.459 28.27 143.862 28.6229 143.108 28.6949C142.354 28.7814 141.694 28.6013 141.129 28.1548C140.563 27.7083 140.296 27.1105 140.328 26.3615V18.8642C140.328 18.3889 140.508 17.9856 140.87 17.6543C141.247 17.323 141.694 17.1574 142.213 17.1574C142.731 17.1574 143.171 17.323 143.532 17.6543C143.91 17.9856 144.098 18.3889 144.098 18.8642V23.5095Z" fill="#192144"/>
<path fill-rule="evenodd" clip-rule="evenodd" d="M124.817 26.9791V18.8221C124.817 18.353 124.618 17.9499 124.222 17.6128C123.841 17.261 123.389 17.0851 122.866 17.0851C122.359 17.0851 121.915 17.261 121.534 17.6128C121.154 17.9499 120.963 18.353 120.963 18.8221V18.6242C120.773 18.1844 120.392 17.8107 119.822 17.5028C119.251 17.1804 118.601 17.0191 117.871 17.0191C116.444 17.0191 115.128 17.5395 113.923 18.5802C112.749 19.6209 112.163 21.05 112.163 22.8676C112.163 24.7292 112.742 26.173 113.899 27.199C115.057 28.2251 116.381 28.7381 117.871 28.7381C118.601 28.7381 119.243 28.6062 119.798 28.3423C120.353 28.0638 120.757 27.734 121.011 27.3529C121.106 27.7487 121.328 28.0785 121.677 28.3423C122.026 28.5915 122.422 28.7161 122.866 28.7161C123.389 28.7161 123.841 28.5475 124.222 28.2104C124.618 27.8733 124.817 27.4628 124.817 26.9791ZM118.733 25.4802C120.033 25.4802 121.087 24.3517 121.087 22.9596C121.087 21.5675 120.033 20.439 118.733 20.439C117.433 20.439 116.38 21.5675 116.38 22.9596C116.38 24.3517 117.433 25.4802 118.733 25.4802Z" fill="#192144"/>
<path d="M107.15 21.3112V18.9535C107.15 18.4745 107.347 18.068 107.739 17.7341C108.132 17.3858 108.59 17.2116 109.114 17.2116C109.637 17.2116 110.095 17.3858 110.488 17.7341C110.88 18.068 111.077 18.4745 111.077 18.9535V27.0316C111.077 27.5106 110.88 27.917 110.488 28.2509C110.111 28.5847 109.653 28.7517 109.114 28.7517C108.574 28.7517 108.107 28.5847 107.715 28.2509C107.339 27.917 107.15 27.5106 107.15 27.0316V24.6391H102.905V27.0316C102.905 27.5106 102.709 27.917 102.316 28.2509C101.94 28.5847 101.482 28.7517 100.942 28.7517C100.402 28.7517 99.9361 28.5847 99.5435 28.2509C99.1673 27.917 98.9791 27.5106 98.9791 27.0316V18.9535C98.9791 18.4745 99.1754 18.068 99.5681 17.7341C99.9607 17.3858 100.419 17.2116 100.942 17.2116C101.466 17.2116 101.924 17.3858 102.316 17.7341C102.709 18.068 102.905 18.4745 102.905 18.9535V21.3112H107.15Z" fill="#192144"/>
<path d="M97.0093 17.2116C97.3939 17.2116 97.7235 17.3559 97.9982 17.6446C98.2729 17.9332 98.4102 18.5986 98.4102 19.0027C98.4102 19.4068 98.2729 19.8247 97.9982 20.1133C97.7235 20.402 97.3939 20.5035 97.0093 20.5035H93.7193V27.0731C93.7193 28.3164 92.6144 28.7518 91.5065 28.7518C90.4785 28.7518 89.497 28.2009 89.497 27.0848L89.531 17.2116C89.531 17.2116 95.2633 17.2116 97.0093 17.2116Z" fill="#192144"/>
<path d="M73.5366 12.248V26.916C73.5366 27.3998 73.2711 27.8101 72.9031 28.1472C72.5504 28.4844 71.9961 28.6529 71.4901 28.6529C70.9841 28.6529 70.2526 28.4844 69.8846 28.1472C69.5319 27.8101 69.3556 27.3997 69.3556 26.916V15.5588H63.4358V26.916C63.4358 27.3997 63.2518 27.8101 62.8838 28.1472C62.5311 28.4844 61.813 28.6529 61.307 28.6529C60.801 28.6529 60.1377 28.4844 59.7697 28.1472C59.4171 27.8101 59.2407 27.3997 59.2407 26.916V12.248C63.9789 12.248 73.5366 12.248 73.5366 12.248Z" fill="#192144"/>
<path d="M86.6395 26.9528C85.4423 28.0649 83.8401 28.6209 81.833 28.6209C79.8259 28.6209 78.2326 28.0649 77.053 26.9528C75.8382 25.8242 75.2308 24.4133 75.2308 22.7203C75.2308 21.0107 75.8382 19.5999 77.053 18.4878C78.2326 17.3758 79.8259 16.8197 81.833 16.8197C83.8401 16.8197 85.4423 17.3758 86.6395 18.4878C87.8367 19.6165 88.4353 21.0273 88.4353 22.7203C88.4353 24.4133 87.8367 25.8242 86.6395 26.9528ZM83.5232 20.9775C83.1887 20.629 82.7749 20.4215 82.282 20.3551C81.8066 20.2721 81.3489 20.3136 80.9087 20.4796C80.4862 20.6456 80.1252 20.9277 79.8259 21.3261C79.5442 21.7244 79.421 22.1892 79.4562 22.7203C79.4562 23.4174 79.6763 23.9984 80.1164 24.4631C80.5742 24.9113 81.1464 25.1353 81.833 25.1353C82.5373 25.1353 83.1095 24.9196 83.5496 24.488C83.9898 24.0399 84.2098 23.4506 84.2098 22.7203C84.2098 22.0232 83.981 21.4423 83.5232 20.9775Z" fill="#192144"/>
<path d="M130.438 17.1574C132.689 17.1574 138.687 17.1904 138.687 17.1904C138.687 17.1904 138.691 24.4422 138.691 26.9763C138.691 27.4631 138.489 27.8827 138.084 28.2352C137.697 28.5709 137.348 28.7387 136.759 28.7387C136.17 28.7387 135.87 28.7829 135.465 28.4472C135.079 28.0947 134.723 27.4631 134.723 26.9763V20.4304H131.991C131.991 25.1228 131.992 26.1537 130.245 27.8324C129.601 28.4366 128.773 28.7387 127.761 28.7387C127.153 28.7387 126.797 28.5947 126.41 28.259C126.024 27.9065 125.724 27.344 125.724 26.8237C125.724 25.7037 125.961 25.2579 126.568 24.5272C128.311 24.5272 128.235 24.1097 128.126 20.9339V18.9197C128.144 18.433 128.235 17.1574 128.235 17.1574C128.235 17.1574 129.904 17.1574 130.438 17.1574Z" fill="#192144"/>
<path d="M162.841 26.2708C162.841 27.6334 161.674 28.738 160.234 28.738C158.794 28.738 157.627 27.6334 157.627 26.2708C157.627 24.9082 158.794 23.8036 160.234 23.8036C161.674 23.8036 162.841 24.9082 162.841 26.2708Z" fill="#192144"/>
</g>
<defs>
<filter id="filter0_d_20358_2649" x="57.2407" y="11.248" width="110.759" height="20.5039" filterUnits="userSpaceOnUse" color-interpolation-filters="sRGB">
<feFlood flood-opacity="0" result="BackgroundImageFix"/>
<feColorMatrix in="SourceAlpha" type="matrix" values="0 0 0 0 0 0 0 0 0 0 0 0 0 0 0 0 0 0 127 0" result="hardAlpha"/>
<feOffset dy="1"/>
<feGaussianBlur stdDeviation="1"/>
<feColorMatrix type="matrix" values="0 0 0 0 0 0 0 0 0 0 0 0 0 0 0 0 0 0 0.3 0"/>
<feBlend mode="normal" in2="BackgroundImageFix" result="effect1_dropShadow_20358_2649"/>
<feBlend mode="normal" in="SourceGraphic" in2="effect1_dropShadow_20358_2649" result="shape"/>
</filter>
</defs>
</svg>
