<svg width="20" height="35" viewBox="0 0 20 35" fill="none" xmlns="http://www.w3.org/2000/svg">
<path d="M18.9389 0.909048C18.7326 0.698127 18.4875 0.530784 18.2176 0.416605C17.9477 0.302425 17.6584 0.243652 17.3662 0.243652C17.0741 0.243652 16.7848 0.302425 16.5149 0.416605C16.245 0.530784 15.9999 0.698127 15.7936 0.909048L1.02659 15.966C0.861855 16.1336 0.731159 16.3328 0.641986 16.5519C0.552813 16.7711 0.506912 17.0061 0.506912 17.2434C0.506912 17.4807 0.552813 17.7157 0.641986 17.9349C0.731159 18.1541 0.861855 18.3532 1.02659 18.5208L15.7936 33.5778C16.6643 34.4656 18.0682 34.4656 18.9389 33.5778C19.8096 32.6899 19.2654 31.7144 18.3946 30.8266L5.3349 17.2434L18.3946 3.59045C18.8969 3.07657 19.8096 1.77876 18.9389 0.909048Z" fill="black"/>
</svg>
