<svg width="188" height="50" viewBox="0 0 188 50" fill="none" xmlns="http://www.w3.org/2000/svg">
<path d="M93.9956 12.6437L53.899 50L39.2637 2.10917L93.9956 12.6437Z" fill="#FF8D30"/>
<ellipse cx="94.727" cy="33.897" rx="4.353" ry="4.25192" fill="#88BFEB"/>
<ellipse cx="111.867" cy="21.5314" rx="15.1738" ry="14.8214" fill="#EB9898"/>
<rect width="56.1361" height="28.0818" transform="matrix(0.940449 -0.339934 0.354279 0.93514 102.938 23.3034)" fill="#72A73E"/>
<ellipse cx="110.041" cy="40.6436" rx="2.55056" ry="2.49133" fill="#FFBD30"/>
<ellipse rx="22.7786" ry="9.03912" transform="matrix(0.97092 0.239406 -0.250219 0.968189 159.093 33.3929)" fill="#8EC7F5"/>
<ellipse cx="176.368" cy="12.2097" rx="2.59389" ry="2.53366" fill="#FFBD30"/>
<ellipse cx="184.46" cy="9.19954" rx="2.59389" ry="2.53366" fill="#FFBD30"/>
<path d="M4.02588 42.0822H10.039V45.0343C10.039 45.5866 9.59133 46.0343 9.03905 46.0343H5.02588C4.47359 46.0343 4.02588 45.5866 4.02588 45.0343V42.0822Z" fill="#1D2959"/>
<path d="M41.209 42.0822H47.2222V45.0343C47.2222 45.5866 46.7744 46.0343 46.2222 46.0343H42.209C41.6567 46.0343 41.209 45.5866 41.209 45.0343V42.0822Z" fill="#1D2959"/>
<path fill-rule="evenodd" clip-rule="evenodd" d="M28.8202 3.49767C27.6472 3.04017 26.366 2.67304 25.4365 2.69114C24.5613 2.70819 23.3628 3.0787 22.2693 3.52448C21.6572 3.77405 21.0528 4.04925 20.4702 4.36048L20.4663 4.36256C19.777 4.73697 18.9092 4.49124 18.5283 3.8134C18.1473 3.13545 18.3973 2.28216 19.0867 1.9075C19.2875 1.79986 19.491 1.69708 19.6958 1.59699C20.0642 1.41695 20.581 1.17631 21.177 0.933328C22.32 0.467338 23.9373 0.0295369 25.38 0.00143768C26.9152 -0.0284637 28.6474 0.412716 29.8718 0.890271C30.6356 1.18821 31.3888 1.51746 32.1126 1.90084L32.1135 1.90132C32.8064 2.26972 33.0643 3.12072 32.6897 3.80208C32.3172 4.47963 31.4393 4.72838 30.7526 4.3665C30.5771 4.27486 30.3991 4.18782 30.2201 4.10286C29.8704 3.93684 29.3802 3.71611 28.8202 3.49767Z" fill="#8A4A38"/>
<path fill-rule="evenodd" clip-rule="evenodd" d="M19.2681 1.72617C18.6284 1.72617 18.1099 2.24473 18.1099 2.8844V3.59085C18.1099 4.12391 18.542 4.55604 19.0751 4.55604H19.1011V8.20736H20.1118V4.52993H19.8625C20.5138 4.40313 21.0054 3.82953 21.0054 3.14111C21.0054 2.35966 20.372 1.72617 19.5905 1.72617H19.2681Z" fill="#F6EF3E"/>
<path fill-rule="evenodd" clip-rule="evenodd" d="M31.9428 1.72617C32.5825 1.72617 33.1011 2.24473 33.1011 2.8844V3.59085C33.1011 4.12391 32.6689 4.55604 32.1359 4.55604H32.1098V8.20736H31.0991V4.52993H31.3485C30.6971 4.40313 30.2055 3.82953 30.2055 3.14111C30.2055 2.35966 30.839 1.72617 31.6204 1.72617H31.9428Z" fill="#F6EF3E"/>
<path d="M0 16.7622C0 11.7917 4.02944 7.76221 9 7.76221H42.2528C47.2234 7.76221 51.2529 11.7917 51.2529 16.7622V42.0822H0V16.7622Z" fill="#8A4A38"/>
<ellipse cx="8.05329" cy="33.2472" rx="5.02106" ry="4.906" fill="#EF9A9A"/>
<ellipse rx="4.80899" ry="9.25664" transform="matrix(0.705106 -0.709101 0.725463 0.688261 39.4773 33.4162)" fill="#93C6EB"/>
<rect width="16.3937" height="9.13786" transform="matrix(0.693232 -0.720714 0.73677 0.676144 19.7539 21.3155)" fill="#C2DEA3"/>
<rect width="8.33473" height="6.24579" rx="1" transform="matrix(0.737932 0.674875 -0.691988 0.721909 10.5845 13.2612)" fill="#C49A6C"/>
<rect x="10.0396" y="23.0503" width="7.06842" height="19.9995" fill="#F57B20"/>
<path d="M10.0396 6.46931H17.108V23.7643C17.108 25.7061 15.5155 27.2802 13.5738 27.2802V27.2802C11.632 27.2802 10.0396 25.7061 10.0396 23.7643V6.46931Z" fill="#F6A725"/>
<rect x="9.05957" y="21.4786" width="9.03459" height="1.96354" fill="#F6EF3E"/>
<rect x="34.1519" y="23.0503" width="7.06842" height="19.9995" fill="#F57B20"/>
<path d="M34.1519 6.46931H41.2203V23.7643C41.2203 25.7061 39.6278 27.2802 37.6861 27.2802V27.2802C35.7443 27.2802 34.1519 25.7061 34.1519 23.7643V6.46931Z" fill="#F6A725"/>
<rect x="33.1719" y="21.4786" width="9.03459" height="1.96354" fill="#F6EF3E"/>
</svg>
