<svg width="37" height="26" viewBox="0 0 37 26" fill="none" xmlns="http://www.w3.org/2000/svg">
<path fill-rule="evenodd" clip-rule="evenodd" d="M32.2786 20.9327L23.6177 13L32.2786 5.06731L31.0976 3.80529L18.4999 15.3438L5.90234 3.80529L4.72131 5.06731L13.3822 13L4.72131 20.9327L5.90234 22.1947L14.6616 14.1719L18.4999 17.6875L22.3383 14.1719L31.0976 22.1947L32.2786 20.9327ZM3.15187 0.5C1.53384 0.5 0.222168 1.89768 0.222168 3.61572V22.3843C0.222168 24.105 1.5232 25.5 3.15187 25.5H33.848C35.4661 25.5 36.7777 24.1023 36.7777 22.3843V3.61572C36.7777 1.89496 35.4767 0.5 33.848 0.5H3.15187Z" fill="#FFD74B"/>
</svg>
