<svg width="28" height="19" viewBox="0 0 28 19" fill="none" xmlns="http://www.w3.org/2000/svg">
<path fill-rule="evenodd" clip-rule="evenodd" d="M24.5436 15.5047L17.9999 9.5111L24.5436 3.5175L23.6513 2.56398L14.1331 11.2819L4.61493 2.56398L3.7226 3.5175L10.2664 9.5111L3.7226 15.5047L4.61493 16.4582L11.233 10.3965L14.1331 13.0528L17.0332 10.3965L23.6513 16.4582L24.5436 15.5047ZM2.53679 0.0666504C1.31428 0.0666504 0.323242 1.12267 0.323242 2.42075V16.6014C0.323242 17.9016 1.30624 18.9555 2.53679 18.9555H25.7294C26.952 18.9555 27.943 17.8995 27.943 16.6014V2.42075C27.943 1.12062 26.96 0.0666504 25.7294 0.0666504H2.53679Z" fill="#FFD74B"/>
</svg>
