<svg width="21" height="19" viewBox="0 0 21 19" fill="none" xmlns="http://www.w3.org/2000/svg">
<g opacity="0.5">
<path fill-rule="evenodd" clip-rule="evenodd" d="M10.2561 7.12436L11.3753 4.77557C11.6532 4.19396 12.1351 3.35764 12.8174 2.68149C13.4883 2.01585 14.292 1.5629 15.2634 1.5629C17.3615 1.5629 19.0189 3.30381 19.0189 5.39658C19.0189 6.9865 18.3254 8.10903 16.6805 9.82106C16.2586 10.2596 15.7779 10.7335 15.2459 11.2561C13.8589 12.6215 12.1339 14.3204 10.2561 16.5917C8.3784 14.3204 6.6534 12.6215 5.26638 11.2561C4.73436 10.7335 4.25241 10.2583 3.8318 9.82106C2.1869 8.10903 1.4934 6.9865 1.4934 5.39658C1.4934 3.30381 3.15081 1.5629 5.24886 1.5629C6.22027 1.5629 7.02394 2.01585 7.69491 2.68149C8.37715 3.35764 8.8591 4.19396 9.13701 4.77557L10.2561 7.12436ZM10.7468 18.0109C10.6866 18.0858 10.6114 18.146 10.5267 18.1873C10.4419 18.2286 10.3496 18.25 10.2561 18.25C10.1627 18.25 10.0704 18.2286 9.9856 18.1873C9.90084 18.146 9.8257 18.0858 9.76542 18.0109C7.76126 15.5138 5.94737 13.7283 4.45395 12.2591C1.86894 9.7134 0.241577 8.11297 0.241577 5.39658C0.241577 2.55414 2.48233 0.25 5.24886 0.25C7.25177 0.25 8.65255 1.62855 9.51005 2.88631C9.83552 3.36552 10.0834 3.82635 10.2561 4.18871C10.4727 3.73519 10.7221 3.29978 11.0022 2.88631C11.8597 1.62723 13.2605 0.25 15.2634 0.25C18.0299 0.25 20.2707 2.55414 20.2707 5.39658C20.2707 8.11297 18.6433 9.7134 16.0583 12.2591C14.5649 13.7296 12.751 15.5151 10.7468 18.0096V18.0109Z" fill="#192144"/>
</g>
</svg>
