<svg width="24" height="24" viewBox="0 0 24 24" fill="none" xmlns="http://www.w3.org/2000/svg">
<path fill-rule="evenodd" clip-rule="evenodd" d="M11.9999 0.796875C7.77412 0.796875 3.53821 1.51113 2.00125 2.93476C0.726058 4.11583 0.300976 6.20233 0.157687 7.52341C0.157687 7.52341 0.137939 7.65396 0.137939 7.71011C0.137939 8.22816 0.582659 8.64365 1.12639 8.64365C1.19063 8.64365 3.56797 8.46157 5.00125 8.34956C5.03574 8.34484 5.0705 8.34021 5.10499 8.33091C5.63881 8.31699 6.0689 7.90612 6.0689 7.39738L6.07369 5.55816C6.07369 4.98869 6.56318 4.53117 7.1662 4.53117H16.8335C17.4366 4.53117 17.9261 4.98863 17.9261 5.55816L17.931 7.39738C17.931 7.90612 18.361 8.31699 18.8948 8.33091C18.9291 8.34026 18.9638 8.34484 18.9987 8.34956C20.4321 8.46151 22.8094 8.64365 22.8734 8.64365C23.4169 8.64365 23.8619 8.22816 23.8619 7.71011C23.8619 7.65396 23.8422 7.52341 23.8422 7.52341C23.6988 6.20233 23.2742 4.11588 21.999 2.93476C20.4615 1.51113 16.2256 0.796875 11.9999 0.796875ZM11.9999 12.9335C10.9076 12.9335 10.0229 13.769 10.0229 14.8006C10.0229 15.8322 10.9076 16.6677 11.9999 16.6677C13.0922 16.6677 13.9768 15.8322 13.9768 14.8006C13.9768 13.769 13.0922 12.9335 11.9999 12.9335ZM10.5171 8.73228V7.56533C10.5171 6.92121 9.96351 6.39839 9.28155 6.39839C8.59959 6.39839 8.04596 6.92126 8.04596 7.56533V8.73228L1.37826 15.4588C0.918797 15.8837 0.632055 16.4763 0.632055 17.13V19.0018C0.632055 20.0334 1.51682 20.8689 2.60906 20.8689H3.10334V22.036C3.10334 22.6801 3.65702 23.2028 4.33898 23.2028C5.02094 23.2028 5.57457 22.6801 5.57457 22.036V20.8689H18.4252V22.036C18.4252 22.6801 18.9786 23.2028 19.6609 23.2028C20.3428 23.2028 20.8963 22.6801 20.8963 22.036V20.8689H21.3906C22.4829 20.8689 23.3676 20.0334 23.3676 19.0018V17.13C23.3676 16.4762 23.0809 15.8836 22.6214 15.4588L15.9539 8.73228V7.56533C15.9539 6.92121 15.4002 6.39839 14.7182 6.39839C14.0363 6.39839 13.4827 6.92126 13.4827 7.56533V8.73228H10.5171ZM11.9999 11.0663C14.1845 11.0663 15.9539 12.7374 15.9539 14.8006C15.9539 16.8638 14.1845 18.5351 11.9999 18.5351C9.81527 18.5351 8.04591 16.8639 8.04591 14.8006C8.04591 12.7374 9.81527 11.0663 11.9999 11.0663Z" fill="#FFD74B"/>
</svg>
