<svg width="18" height="18" viewBox="0 0 18 18" fill="none" xmlns="http://www.w3.org/2000/svg">
<g opacity="0.5">
<path d="M12.9602 1.80064C13.8189 1.80254 14.6419 2.14451 15.2491 2.75172C15.8563 3.35892 16.1983 4.18192 16.2002 5.04064V12.9606C16.1983 13.8194 15.8563 14.6424 15.2491 15.2496C14.6419 15.8568 13.8189 16.1987 12.9602 16.2006H5.04015C4.18269 16.1968 3.36153 15.854 2.75588 15.247C2.15022 14.64 1.80925 13.8181 1.80735 12.9606V5.04064C1.80925 4.18317 2.15022 3.36125 2.75588 2.75425C3.36153 2.14725 4.18269 1.80444 5.04015 1.80064H12.9602ZM12.9602 0.720642H5.04015C3.89442 0.720642 2.79561 1.17578 1.98545 1.98594C1.1753 2.7961 0.720154 3.89491 0.720154 5.04064L0.720154 12.9606C0.720154 14.1064 1.1753 15.2052 1.98545 16.0153C2.79561 16.8255 3.89442 17.2806 5.04015 17.2806H12.9602C14.1059 17.2806 15.2047 16.8255 16.0149 16.0153C16.825 15.2052 17.2802 14.1064 17.2802 12.9606V5.04064C17.2802 3.89491 16.825 2.7961 16.0149 1.98594C15.2047 1.17578 14.1059 0.720642 12.9602 0.720642V0.720642Z" fill="#192144"/>
<path d="M9.00697 5.81731C9.63781 5.81731 10.2545 6.00438 10.779 6.35486C11.3035 6.70533 11.7124 7.20348 11.9538 7.7863C12.1952 8.36913 12.2584 9.01045 12.1353 9.62917C12.0122 10.2479 11.7084 10.8162 11.2624 11.2623C10.8163 11.7084 10.248 12.0122 9.62923 12.1352C9.01051 12.2583 8.36918 12.1951 7.78636 11.9537C7.20354 11.7123 6.70539 11.3035 6.35491 10.779C6.00443 10.2544 5.81737 9.63776 5.81737 9.00691C5.81642 8.58778 5.89827 8.17259 6.05823 7.78518C6.21818 7.39777 6.45309 7.04578 6.74946 6.74941C7.04583 6.45304 7.39783 6.21813 7.78524 6.05817C8.17265 5.89822 8.58784 5.81636 9.00697 5.81731V5.81731ZM9.00697 4.73731C8.16222 4.73589 7.33603 4.98508 6.63295 5.45337C5.92987 5.92165 5.3815 6.58797 5.05724 7.36801C4.73298 8.14805 4.6474 9.00675 4.81133 9.83545C4.97526 10.6641 5.38133 11.4256 5.97816 12.0234C6.57498 12.6213 7.33574 13.0286 8.16416 13.1939C8.99258 13.3593 9.85142 13.2751 10.632 12.9522C11.4126 12.6292 12.0798 12.082 12.5493 11.3797C13.0188 10.6774 13.2694 9.85167 13.2694 9.00691C13.2703 8.44656 13.1608 7.89152 12.947 7.37355C12.7332 6.85558 12.4194 6.38485 12.0235 5.98828C11.6276 5.59172 11.1574 5.27711 10.6398 5.06245C10.1222 4.8478 9.56732 4.73731 9.00697 4.73731Z" fill="#192144"/>
<path d="M13.4282 5.55939C13.9611 5.55939 14.393 5.12744 14.393 4.59459C14.393 4.06175 13.9611 3.62979 13.4282 3.62979C12.8954 3.62979 12.4634 4.06175 12.4634 4.59459C12.4634 5.12744 12.8954 5.55939 13.4282 5.55939Z" fill="#192144"/>
</g>
</svg>
