<svg width="17" height="16" viewBox="0 0 17 16" fill="none" xmlns="http://www.w3.org/2000/svg">
<g clip-path="url(#clip0_20958_2157)">
<path d="M13.7525 0.858478C13.1674 0.989698 12.5795 1.12153 12.3609 1.48279L10.6685 4.66355L1.58123 6.70147L1.21305 7.71778L8.16681 8.33803L6.987 11.0916L4.34983 11.683L3.68772 12.7653L5.59024 12.9601L5.80718 13.8452C5.90438 14.159 6.24552 14.3684 6.53671 14.3031L7.41576 14.106L8.43478 15.745L9.09689 14.6627L8.44605 12.0075L10.3554 9.71178L13.9986 15.7432L14.7332 14.9569L12.4912 5.81004L14.5501 2.85931C14.7715 2.49744 14.6271 1.9083 14.482 1.3164C14.4102 1.02321 14.0437 0.793176 13.7525 0.858478Z" fill="#1D2E5B"/>
</g>
<defs>
<clipPath id="clip0_20958_2157">
<rect width="16.7273" height="16" fill="white" transform="translate(0.272728)"/>
</clipPath>
</defs>
</svg>
