<svg width="17" height="16" viewBox="0 0 17 16" fill="none" xmlns="http://www.w3.org/2000/svg">
<path d="M12.9489 14C12.3544 14 11.7733 13.8314 11.279 13.5155C10.7847 13.1996 10.3995 12.7506 10.172 12.2252C9.94448 11.6999 9.88496 11.1218 10.0009 10.5641C10.1169 10.0064 10.4032 9.49414 10.8235 9.09207C11.2439 8.68999 11.7794 8.41618 12.3625 8.30524C12.9455 8.19431 13.5499 8.25125 14.0991 8.46885C14.6483 8.68645 15.1177 9.05495 15.448 9.52774C15.7783 10.0005 15.9545 10.5564 15.9545 11.125C15.9537 11.8872 15.6367 12.618 15.0732 13.157C14.5098 13.696 13.7457 13.9992 12.9489 14V14ZM12.9489 9.25C12.5612 9.25 12.1822 9.35997 11.8598 9.566C11.5375 9.77202 11.2862 10.0649 11.1378 10.4075C10.9895 10.7501 10.9507 11.1271 11.0263 11.4908C11.1019 11.8545 11.2886 12.1886 11.5628 12.4508C11.8369 12.713 12.1862 12.8916 12.5664 12.964C12.9467 13.0363 13.3408 12.9992 13.699 12.8573C14.0572 12.7154 14.3633 12.475 14.5787 12.1667C14.7941 11.8584 14.9091 11.4958 14.9091 11.125C14.9085 10.6279 14.7018 10.1513 14.3343 9.79982C13.9668 9.44831 13.4686 9.25058 12.9489 9.25V9.25Z" fill="#1D2E5B"/>
<path d="M4.32387 14C3.7294 14 3.14828 13.8314 2.654 13.5155C2.15972 13.1996 1.77447 12.7506 1.54698 12.2252C1.31949 11.6999 1.25996 11.1218 1.37594 10.5641C1.49191 10.0064 1.77818 9.49414 2.19853 9.09207C2.61888 8.68999 3.15444 8.41618 3.73749 8.30524C4.32053 8.19431 4.92487 8.25125 5.47409 8.46885C6.02331 8.68645 6.49273 9.05495 6.823 9.52774C7.15327 10.0005 7.32955 10.5564 7.32955 11.125C7.32868 11.8872 7.01174 12.618 6.44825 13.157C5.88476 13.696 5.12076 13.9992 4.32387 14V14ZM4.32387 9.25C3.93617 9.25 3.55718 9.35997 3.23482 9.566C2.91247 9.77202 2.66122 10.0649 2.51285 10.4075C2.36449 10.7501 2.32567 11.1271 2.4013 11.4908C2.47694 11.8545 2.66363 12.1886 2.93778 12.4508C3.21192 12.713 3.5612 12.8916 3.94145 12.964C4.32169 13.0363 4.71583 12.9992 5.07401 12.8573C5.4322 12.7154 5.73834 12.475 5.95374 12.1667C6.16913 11.8584 6.28409 11.4958 6.28409 11.125C6.28349 10.6279 6.07677 10.1513 5.70929 9.79982C5.34181 9.44831 4.84357 9.25058 4.32387 9.25V9.25Z" fill="#1D2E5B"/>
<path d="M10.7273 4.00003C10.865 4.00049 11.0014 3.97483 11.1287 3.92454C11.2559 3.87425 11.3715 3.80033 11.4687 3.70705C11.566 3.61377 11.6429 3.50298 11.6951 3.38109C11.7472 3.25919 11.7736 3.12862 11.7727 2.99691C11.7742 2.86585 11.7484 2.73583 11.6968 2.61443C11.6452 2.49302 11.5688 2.38269 11.472 2.28987C11.3753 2.19705 11.2602 2.12361 11.1334 2.07384C11.0067 2.02408 10.8708 1.99898 10.7338 2.00003C10.5965 1.99962 10.4605 2.02508 10.3335 2.07496C10.2065 2.12483 10.091 2.19815 9.9936 2.29071C9.89621 2.38328 9.81884 2.49329 9.76591 2.61446C9.71297 2.73563 9.68551 2.86558 9.68508 2.99691C9.68465 3.12823 9.71127 3.25834 9.76341 3.37983C9.81555 3.50131 9.8922 3.61178 9.98898 3.70493C10.0858 3.79808 10.2008 3.87208 10.3274 3.92271C10.4541 3.97335 10.59 3.99962 10.7273 4.00003V4.00003Z" fill="#1D2E5B"/>
<path d="M12.2808 6.00006H10.8511C10.8276 6.00007 10.8046 5.99404 10.7844 5.9826C10.7643 5.97116 10.7477 5.95474 10.7364 5.93506L9.69946 4.11725C9.6264 3.98216 9.52111 3.86542 9.39211 3.77649C9.26311 3.68756 9.11404 3.62893 8.95695 3.60534C8.79986 3.58176 8.63918 3.59389 8.4879 3.64075C8.33663 3.68761 8.19901 3.76788 8.08619 3.87506L5.80384 6.07506C5.61209 6.26226 5.50325 6.51301 5.5 6.77506C5.5 7.31881 5.91165 7.51256 6.1044 7.62194C7.03551 8.13506 7.69121 8.51037 8.05091 8.71881C8.07003 8.72995 8.08584 8.74559 8.09683 8.76425C8.10781 8.78291 8.1136 8.80396 8.11364 8.82537V10.9854C8.11364 11.2544 8.32991 11.4854 8.61121 11.4988C8.68183 11.5021 8.75241 11.4916 8.81867 11.468C8.88494 11.4444 8.94551 11.4082 8.99673 11.3616C9.04795 11.315 9.08874 11.2589 9.11665 11.1967C9.14456 11.1346 9.159 11.0677 9.15909 11.0001V8.31256C9.15914 8.23319 9.13943 8.15494 9.10159 8.0843C9.06376 8.01366 9.00888 7.95265 8.94151 7.90631L7.7327 7.07475C7.71753 7.06436 7.70485 7.05099 7.69553 7.03553C7.68621 7.02007 7.68046 7.00288 7.67867 6.98512C7.67687 6.96736 7.67907 6.94943 7.68513 6.93255C7.69118 6.91567 7.70094 6.90022 7.71375 6.88725L9.08591 5.48756C9.09998 5.47316 9.11741 5.46215 9.13677 5.45542C9.15614 5.44869 9.1769 5.44644 9.19735 5.44884C9.2178 5.45125 9.23737 5.45825 9.25445 5.46927C9.27154 5.48029 9.28565 5.49502 9.29565 5.51225L10.0085 6.74287C10.0538 6.82089 10.1201 6.88588 10.2006 6.9311C10.281 6.97633 10.3726 7.00014 10.4659 7.00006H12.2955C12.3663 7.00014 12.4364 6.98646 12.5015 6.95984C12.5666 6.93322 12.6254 6.89422 12.6743 6.84521C12.7231 6.7962 12.7611 6.73821 12.7859 6.67474C12.8106 6.61127 12.8216 6.54366 12.8182 6.476C12.8045 6.20694 12.562 6.00006 12.2808 6.00006Z" fill="#1D2E5B"/>
</svg>
