<svg width="23" height="12" viewBox="0 0 23 12" fill="none" xmlns="http://www.w3.org/2000/svg">
<path d="M17.7664 11.8547C17.219 11.8424 16.6854 11.6817 16.2232 11.3898C15.7407 11.0655 15.2975 10.6867 14.9026 10.2609C14.5761 9.93628 14.0345 9.39028 13.8268 9.39028C13.619 9.39028 13.4706 10.0691 13.478 10.5487C13.4812 10.8797 13.3564 11.1993 13.1293 11.4415C12.8712 11.6512 12.5561 11.7796 12.2242 11.8104H10.7997C8.75222 11.7656 6.79178 10.9784 5.28708 9.59687C2.55676 7.11036 0.21224 2.35867 0.115789 2.15208C0.0237889 1.97948 -0.0147389 1.78365 0.00506792 1.58931C0.0248747 1.39496 0.102128 1.2108 0.227079 1.06007C0.509857 0.825546 0.867951 0.699857 1.23611 0.70591H4.26321H4.35224C4.6027 0.74225 4.84277 0.830209 5.05708 0.964154C5.25875 1.09864 5.42022 1.28471 5.5245 1.50278C5.8444 2.18385 6.2113 2.8421 6.62256 3.47281C7.5945 4.94849 8.02482 5.28789 8.18063 5.36168C8.35396 4.66978 8.40169 3.95266 8.3216 3.24408C8.3476 2.92135 8.29412 2.59719 8.16579 2.29964C8.00289 2.17006 7.80288 2.09515 7.5945 2.08567L7.05289 1.57656C6.94901 1.08959 7.49063 0.669018 7.86902 0.506694C8.62414 0.271395 9.41638 0.176352 10.2061 0.226315H10.7329C11.2686 0.212441 11.8041 0.261978 12.328 0.373883C13.5893 0.639505 13.5448 1.65034 13.4929 2.81613C13.4929 3.15554 13.4558 3.55397 13.4558 4.01143C13.4558 4.12211 13.4558 4.24016 13.4558 4.36559C13.4266 4.68682 13.4492 5.01062 13.5226 5.32478C14.1402 4.81092 14.6604 4.19119 15.0584 3.49494C15.4879 2.8366 15.865 2.14584 16.1861 1.42899C16.2839 1.20227 16.4516 1.01226 16.6649 0.886297C16.8782 0.760339 17.1262 0.70493 17.3732 0.728046H20.5487C20.6425 0.719147 20.7369 0.719147 20.8306 0.728046C21.5726 0.728046 22.0103 0.942019 22.1884 1.35521C22.3664 1.7684 22.3145 2.58002 20.4374 4.75665L19.6955 5.59041C19.336 5.93751 19.0264 6.33229 18.7755 6.76357C19.0565 7.08127 19.3754 7.36373 19.7251 7.60471C20.5778 8.24367 21.3283 9.00739 21.951 9.86987C22.097 10.0376 22.1925 10.2428 22.2266 10.4621C22.2608 10.6813 22.2321 10.9057 22.1439 11.1094C21.9884 11.3351 21.7803 11.5201 21.5375 11.6486C21.2946 11.777 21.0241 11.8452 20.749 11.8473L17.9371 11.8842L17.7664 11.8547ZM13.8268 8.28352C14.4945 8.28352 15.0732 8.86641 15.689 9.47882C16.0217 9.84005 16.3951 10.1619 16.8019 10.438C17.1096 10.6415 17.4711 10.7494 17.8406 10.7479H17.9148L20.7342 10.711C20.8732 10.7031 21.0094 10.668 21.1348 10.6077L21.0606 10.4897C20.499 9.72852 19.8292 9.05249 19.0722 8.48274C18.1893 7.7449 17.7368 7.39811 17.6848 6.82998C17.6329 6.26184 18.0484 5.76749 18.8793 4.83043L19.6213 4.01143C20.2477 3.37604 20.7619 2.64019 21.1422 1.8348C20.9767 1.82504 20.8107 1.82504 20.6451 1.8348H17.4029C17.3443 1.82177 17.2835 1.82177 17.2248 1.8348C16.8814 2.61798 16.4719 3.37081 16.0006 4.08521C14.5984 6.16592 13.938 6.4463 13.4706 6.4463C13.3257 6.4463 13.183 6.41082 13.0551 6.343C12.3132 5.92243 12.3132 4.98538 12.3577 4.30657C12.3577 4.19589 12.3577 4.08521 12.3577 3.9893C12.3577 3.5097 12.3577 3.09651 12.3948 2.74235C12.4542 1.50278 12.3948 1.4954 12.1129 1.42899C11.6586 1.33973 11.1958 1.30014 10.7329 1.31094H10.221C9.74988 1.30126 9.27872 1.32592 8.81127 1.38472C8.88206 1.4366 8.94459 1.49878 8.99676 1.56918C9.30278 2.04903 9.4554 2.60983 9.4345 3.17767C9.53095 4.39511 9.47902 5.98146 8.69256 6.36514C8.5533 6.42995 8.40115 6.46273 8.2474 6.46106C7.5574 6.46106 6.87482 5.81176 5.70998 4.0557C5.26298 3.38332 4.86383 2.68065 4.51547 1.95286L4.45611 1.87907C4.38118 1.8411 4.30126 1.81377 4.21869 1.79791H1.25095H1.19901C1.63676 2.69808 3.71418 6.68241 6.03643 8.77049C7.34044 9.96189 9.02993 10.6502 10.7997 10.711H12.1722C12.2422 10.6962 12.3097 10.6713 12.3726 10.6372C12.3726 10.6372 12.3726 10.6372 12.3726 10.5708C12.3726 10.3716 12.3726 8.65244 13.5448 8.3573C13.6356 8.32176 13.7302 8.297 13.8268 8.28352Z" fill="#192144"/>
</svg>
