<svg xmlns="http://www.w3.org/2000/svg" xmlns:xlink="http://www.w3.org/1999/xlink"><symbol id="icon-facebook-menu-mobile" viewBox="0 0 11 21"><g fill="none"><path d="M7.488 20.813H2.129v-9.675H0V6.352h2.066c-.157-2.168.236-3.75 1.195-4.83A4.879 4.879 0 0 1 4.896.397 5.078 5.078 0 0 1 6.867 0h3.756v4.612H7.669a4.7 4.7 0 0 0-.197 1.74h3.143v4.785H7.472l.016 9.675Zm-4.172-1.125h2.97v-9.675h3.143V7.5H6.286v-.57c0-1.5 0-2.842.785-3.345l.15-.098h2.208V1.125h-2.53a3.821 3.821 0 0 0-1.497.284c-.472.194-.897.48-1.246.841-.785.922-1.107 2.468-.864 4.605l.079.622H1.179v2.535h2.137v9.675Z" fill="#192144"/></g></symbol><symbol id="icon-facebook-menu-tablet" viewBox="0 0 14 28"><g fill="none"><path d="M9.53 27.75H2.71v-12.9H0V8.47h2.63c-.2-2.89.3-5 1.52-6.44A6.21 6.21 0 0 1 8.74 0h4.78v6.15H9.76a6.55 6.55 0 0 0-.25 2.32h4v6.38h-4l.02 12.9Zm-5.31-1.5H8v-12.9h4V10H8v-.76c0-2 0-3.79 1-4.46l.19-.13H12V1.5H8.78A4.67 4.67 0 0 0 5.29 3c-1 1.23-1.41 3.29-1.1 6.14l.1.83H1.5v3.38h2.72v12.9Z" fill="#192144"/></g></symbol><symbol id="icon-instagram-menu-mobile" viewBox="0 0 18 18"><g fill="none"><g fill="#192144"><path d="M12.96 1.8a3.247 3.247 0 0 1 3.24 3.24v7.92a3.247 3.247 0 0 1-3.24 3.24H5.04a3.247 3.247 0 0 1-3.233-3.24V5.04A3.247 3.247 0 0 1 5.04 1.8h7.92Zm0-1.08H5.04A4.32 4.32 0 0 0 .72 5.04v7.92a4.32 4.32 0 0 0 4.32 4.32h7.92a4.32 4.32 0 0 0 4.32-4.32V5.04A4.32 4.32 0 0 0 12.96.72Z"/><path d="M9.007 5.817a3.19 3.19 0 1 1-2.949 1.968 3.182 3.182 0 0 1 2.949-1.968Zm0-1.08a4.27 4.27 0 1 0 3.94 2.637 4.263 4.263 0 0 0-3.94-2.637ZM13.428 5.56a.965.965 0 1 0 0-1.93.965.965 0 0 0 0 1.93Z"/></g></g></symbol><symbol id="icon-instagram-menu-tablet" viewBox="0 0 24 24"><g fill="none"><path d="M17.28 2.4a4.33 4.33 0 0 1 4.32 4.32v10.56a4.33 4.33 0 0 1-4.32 4.32H6.72a4.33 4.33 0 0 1-4.31-4.32V6.72A4.33 4.33 0 0 1 6.72 2.4h10.56Zm0-1.44H6.72A5.76 5.76 0 0 0 .96 6.72v10.56a5.76 5.76 0 0 0 5.76 5.76h10.56a5.76 5.76 0 0 0 5.76-5.76V6.72A5.76 5.76 0 0 0 17.28.96Z" fill="#192144"/><path d="M12.01 7.756a4.253 4.253 0 1 1-4.254 4.253 4.243 4.243 0 0 1 4.253-4.253Zm0-1.44a5.693 5.693 0 1 0 5.682 5.693 5.681 5.681 0 0 0-5.683-5.693ZM17.904 7.413a1.286 1.286 0 1 0 0-2.573 1.286 1.286 0 0 0 0 2.573Z" fill="#192144"/></g></symbol><symbol id="icon-vkontakte-menu-mobile" viewBox="0 0 23 12"><g fill="none"><path d="M17.766 11.833a2.981 2.981 0 0 1-1.543-.472 7.563 7.563 0 0 1-1.32-1.148c-.327-.33-.869-.885-1.076-.885-.208 0-.356.69-.349 1.178a1.32 1.32 0 0 1-.349.907 1.666 1.666 0 0 1-.905.375H10.8a8.35 8.35 0 0 1-5.513-2.25C2.557 7.011.212 2.181.116 1.971A1.014 1.014 0 0 1 .227.86C.51.622.868.494 1.237.5H4.352c.25.037.49.126.704.262.202.137.363.326.467.548.32.692.687 1.361 1.099 2.002.971 1.5 1.402 1.845 1.558 1.92a6.154 6.154 0 0 0 .14-2.152 2.045 2.045 0 0 0-.155-.96.98.98 0 0 0-.572-.218l-.541-.517C6.949.89 7.49.463 7.869.298a6.382 6.382 0 0 1 2.337-.285h.527a6.688 6.688 0 0 1 1.595.15c1.261.27 1.217 1.298 1.165 2.483 0 .345-.037.75-.037 1.215v.36c-.03.326-.007.655.067.975a6.803 6.803 0 0 0 1.535-1.86c.43-.67.807-1.372 1.128-2.1.098-.23.266-.424.479-.552.213-.128.461-.184.708-.16h3.176c.093-.01.188-.01.282 0 .742 0 1.18.217 1.357.637.178.42.127 1.245-1.75 3.457l-.742.848c-.36.352-.67.754-.92 1.192.28.323.6.61.95.855.852.65 1.602 1.426 2.225 2.303a1.206 1.206 0 0 1 .193 1.26 1.693 1.693 0 0 1-1.395.75l-2.812.037-.17-.03Zm-3.94-3.63c.668 0 1.247.593 1.863 1.215.333.367.706.695 1.113.975.308.207.67.317 1.039.315h.074l2.82-.037a1.05 1.05 0 0 0 .4-.105l-.074-.12a9.864 9.864 0 0 0-1.989-2.04c-.883-.75-1.335-1.103-1.387-1.68-.052-.578.363-1.08 1.194-2.033l.742-.832a8.05 8.05 0 0 0 1.521-2.213 4.155 4.155 0 0 0-.497 0h-3.242a.404.404 0 0 0-.178 0A15.422 15.422 0 0 1 16 3.936c-1.403 2.115-2.063 2.4-2.53 2.4a.876.876 0 0 1-.416-.105c-.742-.428-.742-1.38-.697-2.07v-.323c0-.487 0-.907.037-1.267.06-1.26 0-1.268-.282-1.335a6.285 6.285 0 0 0-1.38-.12h-.512a9.543 9.543 0 0 0-1.41.075.88.88 0 0 1 .186.187c.306.488.458 1.058.438 1.635.096 1.238.044 2.85-.742 3.24-.14.066-.292.1-.446.098-.69 0-1.372-.66-2.537-2.445a17.617 17.617 0 0 1-1.195-2.138l-.059-.075a.891.891 0 0 0-.237-.082h-3.02c.438.915 2.515 4.965 4.837 7.087a7.378 7.378 0 0 0 4.764 1.973h1.372a.736.736 0 0 0 .2-.075v-.068c0-.202 0-1.95 1.173-2.25a1.23 1.23 0 0 1 .282-.075Z" fill="#192144"/></g></symbol><symbol id="icon-vkontakte-menu-tablet" viewBox="0 0 31 16"><g fill="none"><path d="M23.946 15.777a4.05 4.05 0 0 1-2.08-.63 10.17 10.17 0 0 1-1.78-1.53c-.44-.44-1.17-1.18-1.45-1.18s-.48.92-.47 1.57a1.75 1.75 0 0 1-.47 1.21 2.26 2.26 0 0 1-1.22.5h-1.92a11.32 11.32 0 0 1-7.43-3c-3.68-3.37-6.84-9.81-6.97-10.09a1.34 1.34 0 0 1 .15-1.48 2.07 2.07 0 0 1 1.36-.48h4.2c.338.05.661.169.95.35.272.183.49.435.63.73a22.09 22.09 0 0 0 1.48 2.67c1.31 2 1.89 2.46 2.1 2.56.234-.937.298-1.91.19-2.87a2.702 2.702 0 0 0-.21-1.28 1.33 1.33 0 0 0-.77-.29l-.73-.69c-.14-.66.59-1.23 1.1-1.45a8.69 8.69 0 0 1 3.15-.38h.71a9.11 9.11 0 0 1 2.15.2c1.7.36 1.64 1.73 1.57 3.31 0 .46-.05 1-.05 1.62v.48c-.04.436-.009.875.09 1.3a9.09 9.09 0 0 0 2.07-2.48 20.396 20.396 0 0 0 1.52-2.8 1.58 1.58 0 0 1 1.6-.95h4.28a2 2 0 0 1 .38 0c1 0 1.59.29 1.83.85s.17 1.66-2.36 4.61l-1 1.13a7.34 7.34 0 0 0-1.24 1.59c.379.431.809.814 1.28 1.14 1.15.867 2.16 1.902 3 3.07a1.6 1.6 0 0 1 .26 1.68 2.3 2.3 0 0 1-1.88 1l-3.79.05-.23-.04Zm-5.31-4.84c.9 0 1.68.79 2.51 1.62.448.49.952.926 1.5 1.3a2.51 2.51 0 0 0 1.4.42h.1l3.8-.05c.188-.01.371-.058.54-.14l-.1-.16a13.221 13.221 0 0 0-2.68-2.72c-1.19-1-1.8-1.47-1.87-2.24-.07-.77.49-1.44 1.61-2.71l1-1.11a10.731 10.731 0 0 0 2.05-2.95 5.66 5.66 0 0 0-.67 0h-4.37a.55.55 0 0 0-.24 0 20.507 20.507 0 0 1-1.65 3.05c-1.89 2.82-2.78 3.2-3.41 3.2a1.19 1.19 0 0 1-.56-.14c-1-.57-1-1.84-.94-2.76v-.43c0-.65 0-1.21.05-1.69.08-1.68 0-1.69-.38-1.78a8.561 8.561 0 0 0-1.86-.16h-.69a13 13 0 0 0-1.9.1c.096.07.18.155.25.25.413.65.618 1.41.59 2.18.13 1.65.06 3.8-1 4.32a1.38 1.38 0 0 1-.6.13c-.93 0-1.85-.88-3.42-3.26a23.42 23.42 0 0 1-1.61-2.85l-.08-.1a1.21 1.21 0 0 0-.32-.11h-4.07c.59 1.22 3.39 6.62 6.52 9.45a10 10 0 0 0 6.42 2.63h1.85a.999.999 0 0 0 .27-.1v-.09c0-.27 0-2.6 1.58-3 .122-.048.25-.081.38-.1Z" fill="#192144"/></g></symbol><symbol id="interested-mail" viewBox="0 0 19 13"><path fill-rule="evenodd" clip-rule="evenodd" d="M16.14 10.466 11.808 6.5l4.33-3.966-.59-.631L9.25 7.672l-6.299-5.77-.59.632L6.69 6.5l-4.33 3.966.59.631 4.38-4.011L9.25 8.844l1.92-1.758 4.379 4.011.59-.63ZM1.575.25C.766.25.111.949.111 1.808v9.384c0 .86.65 1.558 1.465 1.558h15.348c.81 0 1.465-.699 1.465-1.558V1.808c0-.86-.65-1.558-1.465-1.558H1.576Z"/></symbol><symbol id="interested-phone" viewBox="0 0 19 17"><path fill-rule="evenodd" clip-rule="evenodd" d="M9.5 1.086c-2.796 0-5.6.473-6.617 1.415-.844.781-1.125 2.162-1.22 3.036 0 0-.013.087-.013.124 0 .343.294.618.654.618.043 0 1.616-.12 2.565-.195.022-.003.045-.006.068-.012.353-.01.638-.281.638-.618l.003-1.217c0-.377.324-.68.723-.68H12.7c.399 0 .723.303.723.68l.003 1.217c0 .337.285.608.638.618.022.006.045.009.069.012.948.074 2.521.195 2.564.195.36 0 .654-.275.654-.618 0-.037-.013-.124-.013-.124-.095-.874-.376-2.255-1.22-3.036-1.017-.942-3.82-1.415-6.617-1.415Zm0 8.032c-.723 0-1.308.552-1.308 1.235S8.777 11.59 9.5 11.59c.723 0 1.308-.553 1.308-1.236 0-.683-.585-1.235-1.308-1.235Zm-.981-2.78v-.773c0-.426-.367-.772-.818-.772-.451 0-.818.346-.818.772v.772L2.471 10.79a1.504 1.504 0 0 0-.494 1.106v1.238c0 .683.586 1.236 1.308 1.236h.328v.772c0 .427.366.772.817.772.452 0 .818-.345.818-.772v-.772h8.504v.772c0 .427.366.772.818.772.451 0 .817-.345.817-.772v-.772h.327c.723 0 1.309-.553 1.309-1.236v-1.238c0-.433-.19-.825-.494-1.106l-4.412-4.452v-.772c0-.426-.367-.772-.818-.772-.451 0-.818.346-.818.772v.772H8.52ZM9.5 7.881c1.446 0 2.617 1.106 2.617 2.471 0 1.366-1.171 2.471-2.617 2.471s-2.617-1.105-2.617-2.47c0-1.366 1.171-2.472 2.617-2.472Z"/></symbol><symbol id="main-menu-mail" viewBox="0 0 19 13"><path fill-rule="evenodd" clip-rule="evenodd" d="M16.14 10.466 11.808 6.5l4.33-3.966-.59-.631L9.25 7.672l-6.299-5.77-.59.632L6.69 6.5l-4.33 3.966.59.631 4.38-4.011L9.25 8.844l1.92-1.758 4.379 4.011.59-.63ZM1.575.25C.766.25.111.949.111 1.808v9.384c0 .86.65 1.558 1.465 1.558h15.348c.81 0 1.465-.699 1.465-1.558V1.808c0-.86-.65-1.558-1.465-1.558H1.576Z"/></symbol><symbol id="main-menu-phone" viewBox="0 0 19 17"><path fill-rule="evenodd" clip-rule="evenodd" d="M9.5 1.086c-2.796 0-5.6.473-6.617 1.415-.844.781-1.125 2.162-1.22 3.036 0 0-.013.087-.013.124 0 .343.294.618.654.618.043 0 1.616-.12 2.565-.195.022-.003.045-.006.068-.012.353-.01.638-.281.638-.618l.003-1.217c0-.377.324-.68.723-.68H12.7c.399 0 .723.303.723.68l.003 1.217c0 .337.285.608.638.618.022.006.045.009.069.012.948.074 2.521.195 2.564.195.36 0 .654-.275.654-.618 0-.037-.013-.124-.013-.124-.095-.874-.376-2.255-1.22-3.036-1.017-.942-3.82-1.415-6.617-1.415Zm0 8.032c-.723 0-1.308.552-1.308 1.235S8.777 11.59 9.5 11.59c.723 0 1.308-.553 1.308-1.236 0-.683-.585-1.235-1.308-1.235Zm-.981-2.78v-.773c0-.426-.367-.772-.818-.772-.451 0-.818.346-.818.772v.772L2.471 10.79a1.504 1.504 0 0 0-.494 1.106v1.238c0 .683.586 1.236 1.308 1.236h.328v.772c0 .427.366.772.817.772.452 0 .818-.345.818-.772v-.772h8.504v.772c0 .427.366.772.818.772.451 0 .817-.345.817-.772v-.772h.327c.723 0 1.309-.553 1.309-1.236v-1.238c0-.433-.19-.825-.494-1.106l-4.412-4.452v-.772c0-.426-.367-.772-.818-.772-.451 0-.818.346-.818.772v.772H8.52ZM9.5 7.881c1.446 0 2.617 1.106 2.617 2.471 0 1.366-1.171 2.471-2.617 2.471s-2.617-1.105-2.617-2.47c0-1.366 1.171-2.472 2.617-2.472Z"/></symbol></svg>